<?xml version="1.0" standalone="no"?>
<!DOCTYPE svg PUBLIC "-//W3C//DTD SVG 20010904//EN"
 "http://www.w3.org/TR/2001/REC-SVG-20010904/DTD/svg10.dtd">
<svg version="1.0" xmlns="http://www.w3.org/2000/svg"
 width="34.000000pt" height="44.000000pt" viewBox="0 0 34.000000 44.000000"
 preserveAspectRatio="xMidYMid meet">

<g transform="translate(0.000000,44.000000) scale(0.100000,-0.100000)"
fill="#000000" stroke="none">
<path d="M0 220 l0 -220 170 0 170 0 0 220 0 220 -170 0 -170 0 0 -220z m215
129 c4 -6 -14 -30 -39 -54 -25 -23 -46 -47 -46 -52 0 -5 18 -27 40 -48 36 -35
53 -75 32 -75 -4 0 -34 27 -67 60 l-59 60 59 60 c62 62 69 67 80 49z"/>
</g>
</svg>
